<?xml version="1.0" standalone="no"?><svg xmlns="http://www.w3.org/2000/svg" viewBox="0 0 1440 320"><path fill="#12343b" fill-opacity="0.7" d="M0,128L10,133.3C20,139,40,149,60,149.3C80,149,100,139,120,138.7C140,139,160,149,180,170.7C200,192,220,224,240,240C260,256,280,256,300,240C320,224,340,192,360,165.3C380,139,400,117,420,144C440,171,460,245,480,277.3C500,309,520,299,540,282.7C560,267,580,245,600,218.7C620,192,640,160,660,128C680,96,700,64,720,42.7C740,21,760,11,780,26.7C800,43,820,85,840,106.7C860,128,880,128,900,160C920,192,940,256,960,277.3C980,299,1000,277,1020,245.3C1040,213,1060,171,1080,138.7C1100,107,1120,85,1140,69.3C1160,53,1180,43,1200,69.3C1220,96,1240,160,1260,170.7C1280,181,1300,139,1320,138.7C1340,139,1360,181,1380,186.7C1400,192,1420,160,1430,144L1440,128L1440,0L1430,0C1420,0,1400,0,1380,0C1360,0,1340,0,1320,0C1300,0,1280,0,1260,0C1240,0,1220,0,1200,0C1180,0,1160,0,1140,0C1120,0,1100,0,1080,0C1060,0,1040,0,1020,0C1000,0,980,0,960,0C940,0,920,0,900,0C880,0,860,0,840,0C820,0,800,0,780,0C760,0,740,0,720,0C700,0,680,0,660,0C640,0,620,0,600,0C580,0,560,0,540,0C520,0,500,0,480,0C460,0,440,0,420,0C400,0,380,0,360,0C340,0,320,0,300,0C280,0,260,0,240,0C220,0,200,0,180,0C160,0,140,0,120,0C100,0,80,0,60,0C40,0,20,0,10,0L0,0Z"></path></svg>