<?xml version="1.0" standalone="no"?><svg xmlns="http://www.w3.org/2000/svg" viewBox="0 0 1440 320"><path fill="#badfe7" fill-opacity="1" d="M0,64L17.1,85.3C34.3,107,69,149,103,154.7C137.1,160,171,128,206,133.3C240,139,274,181,309,218.7C342.9,256,377,288,411,266.7C445.7,245,480,171,514,149.3C548.6,128,583,160,617,154.7C651.4,149,686,107,720,117.3C754.3,128,789,192,823,224C857.1,256,891,256,926,218.7C960,181,994,107,1029,80C1062.9,53,1097,75,1131,85.3C1165.7,96,1200,96,1234,122.7C1268.6,149,1303,203,1337,202.7C1371.4,203,1406,149,1423,122.7L1440,96L1440,0L1422.9,0C1405.7,0,1371,0,1337,0C1302.9,0,1269,0,1234,0C1200,0,1166,0,1131,0C1097.1,0,1063,0,1029,0C994.3,0,960,0,926,0C891.4,0,857,0,823,0C788.6,0,754,0,720,0C685.7,0,651,0,617,0C582.9,0,549,0,514,0C480,0,446,0,411,0C377.1,0,343,0,309,0C274.3,0,240,0,206,0C171.4,0,137,0,103,0C68.6,0,34,0,17,0L0,0Z"></path></svg>